<?xml version="1.0" encoding="UTF-8"?><svg id="Layer_1" xmlns="http://www.w3.org/2000/svg" viewBox="0 0 48 1536"><defs><style>.cls-1{stroke-width:0px;}</style></defs><path class="cls-1" d="m0,0v1536h48V0H0Zm40,1518.69c0,2.91-2.35,5.27-5.26,5.27H13.25c-2.9,0-5.25-2.36-5.25-5.27v-13.49c0-2.91,2.35-5.26,5.26-5.26h21.49c2.9,0,5.25,2.35,5.25,5.26v13.49Zm0-47.97c0,2.9-2.35,5.27-5.26,5.27H13.25c-2.9,0-5.25-2.37-5.25-5.27v-13.49c0-2.91,2.35-5.27,5.26-5.27h21.49c2.9,0,5.25,2.36,5.25,5.27v13.49Zm0-48.05c0,2.91-2.35,5.27-5.26,5.27H13.25c-2.9,0-5.25-2.36-5.25-5.27v-13.5c0-2.9,2.35-5.25,5.26-5.25h21.49c2.9,0,5.25,2.35,5.25,5.25v13.5Zm0-47.97c0,2.9-2.35,5.27-5.26,5.27H13.25c-2.9,0-5.25-2.37-5.25-5.27v-13.5c0-2.9,2.35-5.26,5.26-5.26h21.49c2.9,0,5.25,2.36,5.25,5.26v13.5Zm0-48.03c0,2.91-2.35,5.27-5.26,5.27H13.25c-2.9,0-5.25-2.36-5.25-5.27v-13.51c0-2.9,2.35-5.25,5.26-5.25h21.49c2.9,0,5.25,2.35,5.25,5.25v13.51Zm0-47.97c0,2.9-2.35,5.27-5.26,5.27H13.25c-2.9,0-5.25-2.37-5.25-5.27v-13.5c0-2.9,2.35-5.26,5.26-5.26h21.49c2.9,0,5.25,2.36,5.25,5.26v13.5Zm0-48.06c0,2.92-2.35,5.28-5.26,5.28H13.25c-2.9,0-5.25-2.36-5.25-5.28v-13.5c0-2.9,2.35-5.25,5.26-5.25h21.49c2.9,0,5.25,2.35,5.25,5.25v13.5Zm0-47.97c0,2.9-2.35,5.28-5.26,5.28H13.25c-2.9,0-5.25-2.38-5.25-5.28v-13.49c0-2.9,2.35-5.26,5.26-5.26h21.49c2.9,0,5.25,2.36,5.25,5.26v13.49Zm0-48.02c0,2.91-2.35,5.27-5.26,5.27H13.25c-2.9,0-5.25-2.36-5.25-5.27v-13.49c0-2.91,2.35-5.26,5.26-5.26h21.49c2.9,0,5.25,2.35,5.25,5.26v13.49Zm0-47.96c0,2.9-2.35,5.27-5.26,5.27H13.25c-2.9,0-5.25-2.37-5.25-5.27v-13.49c0-2.91,2.35-5.27,5.26-5.27h21.49c2.9,0,5.25,2.36,5.25,5.27v13.49Zm0-48.06c0,2.91-2.35,5.27-5.26,5.27H13.25c-2.9,0-5.25-2.36-5.25-5.27v-13.5c0-2.9,2.35-5.25,5.26-5.25h21.49c2.9,0,5.25,2.35,5.25,5.25v13.5Zm0-47.96c0,2.9-2.35,5.27-5.26,5.27H13.25c-2.9,0-5.25-2.37-5.25-5.27v-13.5c0-2.9,2.35-5.27,5.26-5.27h21.49c2.9,0,5.25,2.37,5.25,5.27v13.5Zm0-48.04c0,2.91-2.35,5.27-5.26,5.27H13.25c-2.9,0-5.25-2.36-5.25-5.27v-13.5c0-2.9,2.35-5.25,5.26-5.25h21.49c2.9,0,5.25,2.35,5.25,5.25v13.5Zm0-47.96c0,2.9-2.35,5.27-5.26,5.27H13.25c-2.9,0-5.25-2.37-5.25-5.27v-13.51c0-2.9,2.35-5.26,5.26-5.26h21.49c2.9,0,5.25,2.36,5.25,5.26v13.51Zm0-48.07c0,2.92-2.35,5.28-5.26,5.28H13.25c-2.9,0-5.25-2.36-5.25-5.28v-13.49c0-2.9,2.35-5.25,5.26-5.25h21.49c2.9,0,5.25,2.35,5.25,5.25v13.49Zm0-47.97c0,2.91-2.35,5.29-5.26,5.29H13.25c-2.9,0-5.25-2.38-5.25-5.29v-13.49c0-2.9,2.35-5.26,5.26-5.26h21.49c2.9,0,5.25,2.36,5.25,5.26v13.49ZM8,17.29c0-2.9,2.35-5.26,5.26-5.26h21.49c2.9,0,5.25,2.36,5.25,5.26v13.49c0,2.9-2.35,5.28-5.26,5.28H13.25c-2.9,0-5.25-2.38-5.25-5.28v-13.49Zm0,47.97c0-2.91,2.35-5.26,5.26-5.26h21.49c2.9,0,5.25,2.35,5.25,5.26v13.49c0,2.92-2.35,5.28-5.26,5.28H13.25c-2.9,0-5.25-2.36-5.25-5.28v-13.49Zm0,48.05c0-2.9,2.35-5.26,5.26-5.26h21.49c2.9,0,5.25,2.36,5.25,5.26v13.5c0,2.9-2.35,5.27-5.26,5.27H13.25c-2.9,0-5.25-2.37-5.25-5.27v-13.5Zm0,47.97c0-2.9,2.35-5.25,5.26-5.25h21.49c2.9,0,5.25,2.35,5.25,5.25v13.5c0,2.91-2.35,5.27-5.26,5.27H13.25c-2.9,0-5.25-2.36-5.25-5.27v-13.5Zm0,48.03c0-2.9,2.35-5.26,5.26-5.26h21.49c2.9,0,5.25,2.36,5.25,5.26v13.5c0,2.9-2.35,5.27-5.26,5.27H13.25c-2.9,0-5.25-2.37-5.25-5.27v-13.5Zm0,47.97c0-2.9,2.35-5.25,5.26-5.25h21.49c2.9,0,5.25,2.35,5.25,5.25v13.5c0,2.91-2.35,5.27-5.26,5.27H13.25c-2.9,0-5.25-2.36-5.25-5.27v-13.5Zm0,48.06c0-2.91,2.35-5.27,5.26-5.27h21.49c2.9,0,5.25,2.36,5.25,5.27v13.49c0,2.91-2.35,5.28-5.26,5.28H13.25c-2.9,0-5.25-2.37-5.25-5.28v-13.49Zm0,47.97c0-2.91,2.35-5.26,5.26-5.26h21.49c2.9,0,5.25,2.35,5.25,5.26v13.49c0,2.91-2.35,5.27-5.26,5.27H13.25c-2.9,0-5.25-2.36-5.25-5.27v-13.49Zm0,48.01c0-2.9,2.35-5.26,5.26-5.26h21.49c2.9,0,5.25,2.36,5.25,5.26v13.5c0,2.9-2.35,5.28-5.26,5.28H13.25c-2.9,0-5.25-2.38-5.25-5.28v-13.5Zm0,47.97c0-2.9,2.35-5.25,5.26-5.25h21.49c2.9,0,5.25,2.35,5.25,5.25v13.49c0,2.92-2.35,5.28-5.26,5.28H13.25c-2.9,0-5.25-2.36-5.25-5.28v-13.49Zm0,48.06c0-2.9,2.35-5.26,5.26-5.26h21.49c2.9,0,5.25,2.36,5.25,5.26v13.5c0,2.9-2.35,5.27-5.26,5.27H13.25c-2.9,0-5.25-2.37-5.25-5.27v-13.5Zm0,47.96c0-2.9,2.35-5.25,5.26-5.25h21.49c2.9,0,5.25,2.35,5.25,5.25v13.5c0,2.91-2.35,5.27-5.26,5.27H13.25c-2.9,0-5.25-2.36-5.25-5.27v-13.5Zm0,48.04c0-2.9,2.35-5.26,5.26-5.26h21.49c2.9,0,5.25,2.36,5.25,5.26v13.5c0,2.9-2.35,5.27-5.26,5.27H13.25c-2.9,0-5.25-2.37-5.25-5.27v-13.5Zm0,47.96c0-2.9,2.35-5.25,5.26-5.25h21.49c2.9,0,5.25,2.35,5.25,5.25v13.5c0,2.91-2.35,5.27-5.26,5.27H13.25c-2.9,0-5.25-2.36-5.25-5.27v-13.5Zm0,48.07c0-2.91,2.35-5.27,5.26-5.27h21.49c2.9,0,5.25,2.36,5.25,5.27v13.49c0,2.9-2.35,5.27-5.26,5.27H13.25c-2.9,0-5.25-2.37-5.25-5.27v-13.49Zm0,47.96c0-2.91,2.35-5.26,5.26-5.26h21.49c2.9,0,5.25,2.35,5.25,5.26v13.5c0,2.91-2.35,5.27-5.26,5.27H13.25c-2.9,0-5.25-2.36-5.25-5.27v-13.5Z"/></svg>